<?xml version="1.0" encoding="iso-8859-1"?>
<!-- Generator: Adobe Illustrator 19.0.0, SVG Export Plug-In . SVG Version: 6.00 Build 0)  -->
<svg version="1.1" id="Capa_1" xmlns="http://www.w3.org/2000/svg" xmlns:xlink="http://www.w3.org/1999/xlink" x="0px" y="0px"
	 viewBox="0 0 512 512" style="enable-background:new 0 0 512 512;" xml:space="preserve">
<path style="fill:#303C42;" d="M326.606,512H106.668c-23.531,0-42.667-19.135-42.667-42.667v-32
	c0-50.094,53.948-158.458,169.198-245.333h-30.531c-20.49,0-33.604-7.604-44.146-13.719c-7.333-4.25-13.135-7.615-19.854-7.615
	c-2.125,0-13.083,7.469-27.771,43.948c-4.896,12.177-16.552,20.052-29.677,20.052H64.001c-23.531,0-42.667-19.135-42.667-42.667
	V42.667C21.335,19.135,40.47,0,64.001,0h19.354c11.5,0,22.167,5.708,28.531,15.281c1.917,2.875,4.833,4.823,8.219,5.479
	c3.521,0.677,7.042-0.052,10.021-2.104C148.304,6.271,165.522,0,181.335,0c15.958,0,34.073,9.802,55.063,21.156
	c27.885,15.083,59.479,32.177,94.271,32.177c58.198,0,97.948-48.833,98.333-49.333c1.896-2.365,4.719-3.812,7.74-3.979
	c3.063-0.188,6,0.948,8.135,3.104l42.667,42.667c3.802,3.802,4.177,9.844,0.875,14.094
	c-1.469,1.885-147.083,190.604-147.083,313.448c0,47.271,12.083,75.917,17.281,86.031c2.688,5.229,4.052,10.813,4.052,16.573
	C362.668,495.823,346.491,512,326.606,512z"/>
<path style="fill:#FFCA28;" d="M138.668,149.333c12.458,0,21.656,5.333,30.563,10.49c9.615,5.583,18.688,10.844,33.438,10.844h64
	c4.698,0,8.844,3.073,10.208,7.573s-0.385,9.365-4.292,11.969c-122.177,81.448-187.25,195.854-187.25,247.125v32
	c0,11.76,9.573,21.333,21.333,21.333h219.938c8.125,0,14.729-6.604,14.729-14.729c0-2.375-0.552-4.604-1.698-6.823
	c-5.906-11.5-19.635-43.865-19.635-95.781c0-117.208,117.885-281.656,145.875-319.042l-28.188-28.188
	c-15.927,16.104-54.521,48.563-107.021,48.563c-40.188,0-75.802-19.271-104.417-34.75c-17.677-9.552-34.365-18.583-44.917-18.583
	c-14.25,0-29.177,8.135-39.188,14.948c-7.74,5.271-17,7.167-26.115,5.417c-9.021-1.76-16.792-6.938-21.896-14.594
	c-2.406-3.615-6.438-5.771-10.781-5.771H64.001c-11.76,0-21.333,9.573-21.333,21.333V192c0,11.76,9.573,21.333,21.333,21.333H81.22
	c4.375,0,8.25-2.625,9.885-6.677C114.179,149.333,132.616,149.333,138.668,149.333z"/>
<path style="opacity:0.1;enable-background:new    ;" d="M320.001,373.333c0-117.208,117.885-281.656,145.875-319.042
	l-28.188-28.188c-10.533,10.65-31.139,28.29-58.964,39.126C334.544,133.803,277.335,238.316,277.335,320
	c0,51.917,13.729,84.281,19.635,95.781c1.146,2.219,1.698,4.448,1.698,6.823c0,8.125-6.604,14.729-14.729,14.729H85.335v32
	c0,11.76,9.573,21.333,21.333,21.333h219.938c8.125,0,14.729-6.604,14.729-14.729c0-2.375-0.552-4.604-1.698-6.823
	C333.731,457.615,320.001,425.25,320.001,373.333z"/>
<linearGradient id="SVGID_1_" gradientUnits="userSpaceOnUse" x1="-47.6341" y1="640.7861" x2="-26.3996" y2="630.8853" gradientTransform="matrix(21.3333 0 0 -21.3333 996.3334 13791.667)">
	<stop  offset="0" style="stop-color:#FFFFFF;stop-opacity:0.2"/>
	<stop  offset="1" style="stop-color:#FFFFFF;stop-opacity:0"/>
</linearGradient>
<path style="fill:url(#SVGID_1_);" d="M326.606,512H106.668c-23.531,0-42.667-19.135-42.667-42.667v-32
	c0-50.094,53.948-158.458,169.198-245.333h-30.531c-20.49,0-33.604-7.604-44.146-13.719c-7.333-4.25-13.135-7.615-19.854-7.615
	c-2.125,0-13.083,7.469-27.771,43.948c-4.896,12.177-16.552,20.052-29.677,20.052H64.001c-23.531,0-42.667-19.135-42.667-42.667
	V42.667C21.335,19.135,40.47,0,64.001,0h19.354c11.5,0,22.167,5.708,28.531,15.281c1.917,2.875,4.833,4.823,8.219,5.479
	c3.521,0.677,7.042-0.052,10.021-2.104C148.304,6.271,165.522,0,181.335,0c15.958,0,34.073,9.802,55.063,21.156
	c27.885,15.083,59.479,32.177,94.271,32.177c58.198,0,97.948-48.833,98.333-49.333c1.896-2.365,4.719-3.812,7.74-3.979
	c3.063-0.188,6,0.948,8.135,3.104l42.667,42.667c3.802,3.802,4.177,9.844,0.875,14.094
	c-1.469,1.885-147.083,190.604-147.083,313.448c0,47.271,12.083,75.917,17.281,86.031c2.688,5.229,4.052,10.813,4.052,16.573
	C362.668,495.823,346.491,512,326.606,512z"/>
<g>
</g>
<g>
</g>
<g>
</g>
<g>
</g>
<g>
</g>
<g>
</g>
<g>
</g>
<g>
</g>
<g>
</g>
<g>
</g>
<g>
</g>
<g>
</g>
<g>
</g>
<g>
</g>
<g>
</g>
</svg>
